<?xml version="1.0" encoding="utf-8"?>
<!-- Generator: Adobe Illustrator 16.0.0, SVG Export Plug-In . SVG Version: 6.00 Build 0)  -->
<!DOCTYPE svg PUBLIC "-//W3C//DTD SVG 1.1//EN" "http://www.w3.org/Graphics/SVG/1.1/DTD/svg11.dtd">
<svg version="1.1" id="Layer_1" xmlns="http://www.w3.org/2000/svg" xmlns:xlink="http://www.w3.org/1999/xlink" x="0px" y="0px"
	 width="57px" height="99.143px" viewBox="0 0 57 99.143" enable-background="new 0 0 57 99.143" xml:space="preserve">
<path fill="#EEEEEE" d="M23,44.843v7c-9.665,0-18,8.335-18,18v29.3h11v-29.3c0-3.59,3.41-7,7-7v20c0,3.037,2.463,5.5,5.5,5.5
	s5.5-2.463,5.5-5.5v-20h1c3.59,0,6,3.41,6,7v29.3h11v-29.3c0-9.665-7.335-18-17-18h-1v-7h1c9.665,0,17-7.335,17-17V0H41v27.843
	c0,3.59-2.41,6-6,6h-1v-17c0-3.037-2.463-5.5-5.5-5.5s-5.5,2.463-5.5,5.5v17c-3.59,0-7-2.41-7-6V0H5v27.843
	C5,37.508,13.335,44.843,23,44.843z"/>
<path fill="#444444" d="M52,0v27.843c0,9.665-7.335,17-17,17h-1v7h1c9.665,0,17,8.335,17,18v29.3H41v-29.3c0-3.59-2.41-7-6-7h-1v20
	c0,3.037-2.463,5.5-5.5,5.5s-5.5-2.463-5.5-5.5v-20c-3.59,0-7,3.41-7,7v29.3H5v-29.3c0-9.665,8.335-18,18-18v-7
	c-9.665,0-18-7.335-18-17V0h11v27.843c0,3.59,3.41,6,7,6v-17c0-3.037,2.463-5.5,5.5-5.5s5.5,2.463,5.5,5.5v17h1c3.59,0,6-2.41,6-6V0
	H52 M55,0H38l0,0v27.843c0,1.102-0.346,1.921-1,2.423V16.843c0-4.688-3.812-8.5-8.5-8.5c-4.687,0-8.5,3.812-8.5,8.5v12.984
	c-0.605-0.503-1-1.177-1-1.984V0l0,0H2l0,0v27.843c0,10.058,7.836,18.406,18,19.796v1.428C9.977,50.573,2,59.476,2,69.843v29.3l0,0
	h17l0,0v-29.3c0-0.852,0.394-1.725,1-2.437v15.437c0,4.687,3.813,8.5,8.5,8.5c4.688,0,8.5-3.813,8.5-8.5V66.861
	c0.641,0.782,1,1.906,1,2.982v29.3l0,0h17l0,0v-29.3c0-10.87-7.908-19.838-18-20.896v-1.193c10.393-0.941,18-9.186,18-19.91V0"/>
<rect x="20.055" y="31.111" fill="#444444" width="2.882" height="34.4"/>
<rect x="34.039" y="31.118" fill="#444444" width="2.906" height="34.399"/>
</svg>
