<?xml version="1.0" encoding="utf-8"?>
<!-- Generator: Adobe Illustrator 16.0.0, SVG Export Plug-In . SVG Version: 6.00 Build 0)  -->
<!DOCTYPE svg PUBLIC "-//W3C//DTD SVG 1.1//EN" "http://www.w3.org/Graphics/SVG/1.1/DTD/svg11.dtd">
<svg version="1.1" id="Layer_1" xmlns="http://www.w3.org/2000/svg" xmlns:xlink="http://www.w3.org/1999/xlink" x="0px" y="0px"
	 width="182px" height="181.998px" viewBox="0 0 182 181.998" style="enable-background:new 0 0 182 181.998;" xml:space="preserve"
	>
<ellipse style="fill:#1BAD8A;stroke:#444444;stroke-miterlimit:10;" cx="91" cy="16.819" rx="15.823" ry="11.934"/>
<path style="fill:#1BAD8A;stroke:#444444;stroke-width:1.1067;stroke-miterlimit:10;" d="M91,8.907
	c-45.335,0-82.091,36.764-82.091,82.091c0,45.357,36.756,82.093,82.091,82.093c45.343,0,82.092-36.721,82.092-82.093
	C173.092,45.656,136.343,8.907,91,8.907z"/>
<path style="fill:#FFFFFF;" d="M91,30.18c-33.587,0-60.818,27.237-60.818,60.818c0,33.604,27.231,60.819,60.818,60.819
	c33.593,0,60.818-27.203,60.818-60.819C151.818,57.406,124.593,30.18,91,30.18z"/>
<path style="fill:#444444;" d="M97.771,108.543h23.627l-10.133-5.856h-10.135L97.771,108.543z M82.561,93.92l-1.693,2.923l0,0
	l2.53-1.461L82.561,93.92z M91,79.298v2.922h1.691L91,79.298z M101.133,96.843L101.133,96.843L101.133,96.843l-2.529-1.461
	l-0.832,1.461H101.133z M103.675,98.315l7.603,4.371l-6.76-11.688l-3.385,5.845L103.675,98.315L103.675,98.315z M91,79.298v-11.7
	l-6.753,11.701L91,79.298L91,79.298z M98.604,95.382l4.229-7.306l-1.698-2.923l0,0l-5.061,8.767L98.604,95.382z M96.072,76.364
	h6.759L91,55.897v11.701L96.072,76.364z M77.5,90.999l1.675-2.91l-3.379-5.868l0,0l-1.681,2.934L77.5,90.999z M70.735,79.298H77.5
	L91,55.897v-11.7L70.735,79.298L70.735,79.298z M70.735,79.298L70.735,79.298 M75.795,82.22L75.795,82.22 M75.795,93.92
	l-3.368-5.832l-11.825,20.455l0,0l10.133-5.856L75.795,93.92z M91,82.22h-8.439l-1.693,2.934l0,0H91V82.22z M91,102.687L91,102.687
	l-5.072-8.767l-2.53,1.462l4.223,7.305H91z M80.867,96.843l-2.53,1.461l-7.602,4.371h13.512L80.867,96.843z M87.632,108.543h-27.03
	l-10.132,5.856H91l0,0L87.632,108.543z M91,30.18c-33.587,0-60.818,27.237-60.818,60.818c0,33.604,27.231,60.819,60.818,60.819
	c33.593,0,60.818-27.203,60.818-60.819C151.818,57.406,124.593,30.18,91,30.18z M91,120.244H40.338l10.132-5.845l18.572-32.182
	l-3.379-5.854l0,0L91,32.484v11.701l18.578,32.167h6.759l25.337,43.879l-10.132-5.844H94.379L91,120.244 M91,114.399L91,114.399
	 M107.893,85.154l13.506,23.402l0,0l10.146,5.832l-20.275-35.09L107.893,85.154z M97.771,102.687H94.38L91,108.543h3.368
	L97.771,102.687z M111.266,79.298L111.266,79.298 M106.205,82.22L106.205,82.22 M96.072,88.088l-1.693-2.935H91v2.923h-5.072
	 M85.928,88.088l-1.681,2.91l1.692,2.935l2.53-1.474L91,96.843h3.368l1.692-2.923l-2.529-1.461l2.542-4.371 M80.867,85.154
	L80.867,85.154 M91,108.543L91,108.543 M91,102.687L91,102.687 M97.771,79.298l1.687,2.922h6.747l0,0l-1.688-2.922H97.771z"/>
<path style="opacity:0.35;fill:#FFFFFF;enable-background:new    ;" d="M91,30.18c-33.587,0-60.818,27.237-60.818,60.818
	c0,33.604,27.231,60.819,60.818,60.819c33.593,0,60.818-27.203,60.818-60.819C151.818,57.406,124.593,30.18,91,30.18z"/>
<path style="display:none;fill:#444444;" d="M92.482,91c0-9.704,0.853-18.501,2.108-23.877C92.796,65.693,91,60.321,91,55.897
	c0,4.424-1.796,9.796-3.593,11.226c1.258,5.376,2.111,14.173,2.111,23.877H92.482z"/>
<path style="display:none;fill:#444444;" d="M91.904,92.303c19.521-15.982,26.867-20.896,31.824-23.327
	c-0.031-2.295,2.984-7.089,6.41-9.892c-3.426,2.803-8.72,4.816-10.963,4.332c-3.361,4.379-9.631,10.61-29.152,26.593L91.904,92.303z
	"/>
<circle style="fill:#444444;stroke:#444444;stroke-width:1.3042;stroke-miterlimit:10;" cx="91" cy="90.999" r="3.419"/>
<g>
	<path style="fill:#444444;" d="M91,30.18c33.593,0,60.818,27.226,60.818,60.818c0,33.616-27.227,60.819-60.818,60.819
		c-33.587,0-60.818-27.215-60.818-60.819C30.182,57.417,57.413,30.18,91,30.18 M91,29.68c-33.811,0-61.318,27.507-61.318,61.318
		c0,33.812,27.507,61.319,61.318,61.319c33.812,0,61.318-27.508,61.318-61.319C152.318,57.188,124.812,29.68,91,29.68L91,29.68z"/>
</g>
<g style="display:none;">
	<path style="display:inline;opacity:0.3;fill:#FFFFFF;enable-background:new    ;" d="M91,30.18
		c-33.587,0-60.818,27.237-60.818,60.818c0,33.604,27.231,60.819,60.818,60.819c33.593,0,60.818-27.203,60.818-60.819
		C151.818,57.406,124.593,30.18,91,30.18z"/>
	<path style="display:inline;opacity:0.4;fill:#FFFFFF;enable-background:new    ;" d="M144.87,75.423
		c0.344,2.677,0.541,5.4,0.541,8.17c0,33.518-25.937,60.908-58.818,63.295c1.456,0.113,2.922,0.188,4.407,0.188
		c30.975,0,56.078-25.083,56.078-56.079C147.078,85.591,146.298,80.37,144.87,75.423z"/>
	<path style="display:inline;opacity:0.14;fill:#848484;enable-background:new    ;" d="M36.467,105.743
		c-0.344-2.676-0.541-5.4-0.541-8.17c0-33.518,25.936-60.908,58.818-63.295c-1.455-0.113-2.922-0.188-4.406-0.188
		c-30.975,0-56.079,25.083-56.079,56.079C34.259,95.575,35.04,100.796,36.467,105.743z"/>
</g>
</svg>
