<?xml version="1.0" encoding="utf-8"?>
<!-- Generator: Adobe Illustrator 16.0.0, SVG Export Plug-In . SVG Version: 6.00 Build 0)  -->
<!DOCTYPE svg PUBLIC "-//W3C//DTD SVG 1.1//EN" "http://www.w3.org/Graphics/SVG/1.1/DTD/svg11.dtd">
<svg version="1.1" id="Layer_1" xmlns="http://www.w3.org/2000/svg" xmlns:xlink="http://www.w3.org/1999/xlink" x="0px" y="0px"
	 width="182px" height="181.998px" viewBox="0 0 182 181.998" style="enable-background:new 0 0 182 181.998;" xml:space="preserve"
	>
<g>
	<path style="opacity:0.3;fill:#FFFFFF;enable-background:new    ;" d="M91,30.18c-33.587,0-60.818,27.237-60.818,60.818
		c0,33.604,27.231,60.819,60.818,60.819c33.593,0,60.818-27.203,60.818-60.819C151.818,57.406,124.593,30.18,91,30.18z"/>
	<path style="opacity:0.4;fill:#FFFFFF;enable-background:new    ;" d="M144.87,75.423c0.344,2.677,0.541,5.4,0.541,8.17
		c0,33.518-25.936,60.908-58.818,63.295c1.456,0.113,2.922,0.188,4.407,0.188c30.975,0,56.078-25.083,56.078-56.079
		C147.078,85.591,146.298,80.37,144.87,75.423z"/>
	<path style="opacity:0.14;fill:#848484;enable-background:new    ;" d="M36.467,105.743c-0.344-2.676-0.541-5.4-0.541-8.17
		c0-33.518,25.936-60.908,58.818-63.295c-1.455-0.113-2.922-0.188-4.406-0.188c-30.975,0-56.079,25.083-56.079,56.079
		C34.259,95.575,35.04,100.796,36.467,105.743z"/>
</g>
</svg>
